<svg width="261" height="62" viewBox="0 0 261 62" fill="none" xmlns="http://www.w3.org/2000/svg">
<g clip-path="url(#clip0_0_64)">
<path d="M59.569 47.0497H50.7992C50.5364 47.0497 50.3608 47.226 50.3608 47.4907V61.2943C50.3608 61.559 50.5364 61.7353 50.7992 61.7353H52.9038C53.167 61.7353 53.3426 61.559 53.3426 61.2943V55.9139H58.6042C58.8674 55.9139 59.0426 55.7376 59.0426 55.4729V53.5768C59.0426 53.3121 58.8674 53.1358 58.6042 53.1358H53.3426V49.8282H59.6128C59.876 49.8282 60.0511 49.6515 60.0511 49.3872V47.4907C60.0073 47.27 59.7884 47.0497 59.569 47.0497ZM82.5453 55.4733C83.203 55.2086 83.7732 54.7676 84.2554 54.1942C84.8255 53.4889 85.0883 52.6068 85.0883 51.5484C85.0883 50.7103 84.9131 49.9166 84.5186 49.2548C84.124 48.5935 83.5538 48.0201 82.8523 47.6675C82.1507 47.2704 81.3174 47.0941 80.3969 47.0941H75.0472C74.784 47.0941 74.6089 47.2704 74.6089 47.5351V61.3387C74.6089 61.6034 74.784 61.7797 75.0472 61.7797H77.1519C77.4151 61.7797 77.5907 61.6034 77.5907 61.3387V55.9583H79.4759L82.2383 61.515C82.3259 61.6474 82.4577 61.7797 82.6329 61.7797H85.0445C85.1763 61.7797 85.3515 61.6918 85.4391 61.5594C85.4821 61.494 85.505 61.4173 85.505 61.3389C85.505 61.2605 85.4821 61.1838 85.4391 61.1184L82.5453 55.4733ZM77.5907 49.8282H80.2213C80.8352 49.8282 81.2736 49.9606 81.6244 50.3132C81.9751 50.6219 82.1069 51.019 82.1069 51.5924C82.1069 52.1214 81.9313 52.5184 81.6244 52.8271C81.2736 53.1358 80.8352 53.3121 80.2213 53.3121H77.5907V49.8282ZM101.926 47.0501H92.2794C92.0166 47.0501 91.841 47.2264 91.841 47.4911V49.3872C91.841 49.6519 92.0166 49.8282 92.2794 49.8282H95.6119V61.2947C95.6119 61.5594 95.7875 61.7358 96.0503 61.7358H98.1111C98.3743 61.7358 98.5499 61.5594 98.5499 61.2947V49.8282H101.882C102.145 49.8282 102.321 49.6519 102.321 49.3872V47.4911C102.365 47.2704 102.145 47.0501 101.926 47.0501ZM113.502 47.0501H104.732C104.469 47.0501 104.294 47.2264 104.294 47.4911V61.2947C104.294 61.5594 104.469 61.7358 104.732 61.7358H113.502C113.765 61.7358 113.941 61.5594 113.941 61.2947V59.3982C113.941 59.1335 113.765 58.9572 113.502 58.9572H107.232V55.6936H112.494C112.756 55.6936 112.932 55.5173 112.932 55.2526V53.4005C112.932 53.1358 112.756 52.9595 112.494 52.9595H107.232V49.8282H113.502C113.765 49.8282 113.941 49.6519 113.941 49.3872V47.4911C113.941 47.2704 113.721 47.0501 113.502 47.0501ZM122.886 47.3588C122.861 47.2717 122.81 47.1948 122.739 47.1392C122.668 47.0836 122.581 47.0524 122.491 47.0501H120.825C120.735 47.0523 120.648 47.0835 120.577 47.1391C120.506 47.1947 120.454 47.2717 120.43 47.3588L115.387 61.1624C115.344 61.2947 115.344 61.4271 115.431 61.5594C115.519 61.6918 115.651 61.7358 115.782 61.7358H118.019C118.194 61.7358 118.369 61.6034 118.413 61.4271L119.246 58.9572H124.025L124.859 61.4271C124.903 61.6034 125.078 61.7358 125.253 61.7358H127.489C127.621 61.7358 127.753 61.6474 127.84 61.5594C127.928 61.4271 127.928 61.2947 127.884 61.1624L122.886 47.3588ZM123.149 56.3114H120.167L121.701 51.9894L123.149 56.3114ZM142.222 47.0501H140.118C139.943 47.0501 139.811 47.1381 139.723 47.3144L136.215 55.0323L132.62 47.3144C132.532 47.1381 132.401 47.0501 132.225 47.0501H130.12C129.857 47.0501 129.682 47.2264 129.682 47.4911V61.2947C129.682 61.5594 129.857 61.7358 130.12 61.7358H132.225C132.488 61.7358 132.663 61.5594 132.663 61.2947V54.0179L135.075 59.0016C135.163 59.1335 135.294 59.2659 135.47 59.2659H137.005C137.18 59.2659 137.312 59.1779 137.399 59.0016L139.723 54.0623V61.3387C139.723 61.6034 139.899 61.7797 140.161 61.7797H142.267C142.529 61.7797 142.705 61.6034 142.705 61.3387V47.5351C142.661 47.2704 142.486 47.0501 142.222 47.0501ZM154.018 54.2386C153.711 53.9299 153.316 53.7092 152.877 53.5328C152.439 53.3565 151.913 53.2242 151.255 53.1358L149.677 52.9155C149.413 52.8715 149.151 52.8271 148.887 52.6947C148.668 52.6068 148.449 52.4745 148.361 52.3861C148.098 52.1658 148.01 51.8571 148.01 51.4161C148.01 51.063 148.098 50.7987 148.23 50.534C148.405 50.2693 148.624 50.0929 148.887 49.9606C149.194 49.8282 149.589 49.7403 150.027 49.7403C150.422 49.7403 150.773 49.7843 151.08 49.8282C151.387 49.8722 151.694 50.0046 151.957 50.1369C152.25 50.2832 152.516 50.4769 152.746 50.7103C152.786 50.7521 152.833 50.7854 152.886 50.8081C152.939 50.8309 152.996 50.8426 153.053 50.8426C153.11 50.8426 153.167 50.8309 153.22 50.8081C153.273 50.7854 153.32 50.7521 153.36 50.7103L154.719 49.3872C154.807 49.2993 154.851 49.1669 154.851 49.0785C154.851 48.9462 154.807 48.8582 154.719 48.7698C154.105 48.1965 153.404 47.7554 152.702 47.4911C152.001 47.2264 151.123 47.0941 150.159 47.0941C149.151 47.0941 148.274 47.2704 147.528 47.6231C146.801 47.9682 146.191 48.5204 145.774 49.2109C145.38 49.8722 145.16 50.6663 145.16 51.5484C145.16 52.7831 145.555 53.7976 146.3 54.5029C147.002 55.1646 147.923 55.5617 149.151 55.738L150.773 55.9583C151.123 56.0023 151.43 56.0907 151.606 56.1347C151.781 56.1791 151.913 56.267 152.044 56.4433C152.308 56.6641 152.439 57.0611 152.439 57.5461C152.439 58.0751 152.264 58.4722 151.869 58.7369C151.43 59.0456 150.817 59.2219 150.027 59.2219C149.589 59.2219 149.151 59.1779 148.8 59.0895C148.449 59.0016 148.098 58.8692 147.747 58.6925C147.41 58.5003 147.1 58.263 146.827 57.9872C146.739 57.8988 146.651 57.8548 146.52 57.8548C146.388 57.8548 146.3 57.8988 146.213 57.9872L144.81 59.3543C144.722 59.4422 144.678 59.5306 144.678 59.6629C144.678 59.7953 144.722 59.8832 144.81 59.9716C145.511 60.6774 146.256 61.1624 147.09 61.471C147.923 61.7797 148.887 61.9121 149.984 61.9121C150.729 61.9121 151.474 61.8237 152.088 61.6034C152.715 61.436 153.298 61.1352 153.798 60.7213C154.281 60.3243 154.675 59.8393 154.938 59.2659C155.201 58.6925 155.333 58.0751 155.333 57.4138C155.289 56.0023 154.851 54.9439 154.018 54.2386ZM67.1774 46.9195C66.4379 46.8997 65.7024 47.0343 65.0175 47.3148C64.3326 47.5953 63.7131 48.0156 63.1985 48.5491C61.7467 50.0178 61.7467 51.8602 61.7467 54.1907V54.5952C61.7467 56.9257 61.7467 58.7817 63.1985 60.2368C63.714 60.7704 64.3342 61.191 65.0198 61.4719C65.7042 61.7525 66.4391 61.8866 67.1774 61.8659C67.9128 61.8851 68.6442 61.7503 69.3249 61.4702C70.0069 61.189 70.6234 60.769 71.1357 60.2368C72.608 58.747 72.608 56.9609 72.608 54.4941V54.2988C72.608 51.8285 72.608 50.0459 71.1357 48.5561C70.624 48.0225 70.0076 47.6013 69.3254 47.3192C68.6448 47.0377 67.9132 46.9016 67.1774 46.9195ZM65.5877 50.5621C65.79 50.3434 66.0365 50.1705 66.3106 50.055C66.5847 49.9395 66.8802 49.8841 67.1774 49.8924C67.4709 49.8825 67.763 49.9373 68.0331 50.0529C68.3033 50.1686 68.5454 50.3423 68.7429 50.5621C69.222 51.0995 69.3705 51.6962 69.3705 54.4C69.3705 57.1038 69.222 57.6829 68.7359 58.2378C68.5393 58.4585 68.2971 58.6336 68.027 58.7496C67.7567 58.8661 67.4642 58.9212 67.1704 58.911C66.8721 58.9197 66.5754 58.8638 66.3006 58.747C66.0257 58.6302 65.7792 58.4553 65.5777 58.2343C65.1157 57.7141 64.9707 57.1179 64.9707 54.414C64.9707 51.7098 65.1222 51.1065 65.5877 50.5621Z" fill="#F48024"/>
<path d="M36.7944 33.4163V47.0475H4.81711V33.4163H0V51.8843H41.6023V33.4163H36.7944Z" fill="#BCBBBB"/>
<path d="M9.22119 42.6502H32.406V38.2531H9.22119V42.6502ZM9.68451 32.1344L32.2058 36.8807L33.1329 32.367L10.6107 27.6207L9.68451 32.1344ZM12.6505 21.2928L33.5034 31.0642L35.4499 26.8763L14.5958 17.1049L12.6497 21.2928H12.6505ZM18.4429 11.0096L36.1449 25.806L39.1109 22.2698L21.3621 7.47337L18.4429 11.0096ZM29.8428 0.074707L26.135 2.81986L39.8519 21.386L43.5589 18.6404L29.8428 0.074707Z" fill="#F48024"/>
<path d="M59.5418 32.2822L56.5845 32.0122C54.2543 31.8319 53.3583 30.8725 53.3583 29.3124C53.3583 27.4229 54.7921 26.2528 57.4809 26.2528C59.3924 26.2528 61.0653 26.7031 62.3799 27.7228L64.1425 25.9529C62.4995 24.603 60.1395 23.9733 57.5107 23.9733C53.5672 23.9733 50.7295 26.0132 50.7295 29.4025C50.7295 32.4621 52.6415 34.082 56.2258 34.3819L59.2729 34.6518C61.3942 34.8321 62.3501 35.7318 62.3501 37.3517C62.3501 39.5411 60.468 40.621 57.4507 40.621C55.1507 40.621 53.1792 40.0208 51.7153 38.491L49.9229 40.2912C51.9544 42.2409 54.3739 42.9612 57.4809 42.9612C61.9319 42.9612 64.979 40.8914 64.979 37.3218C64.979 33.8423 62.7683 32.5821 59.5418 32.2822ZM82.6039 23.9733C79.6466 23.9733 77.7942 24.5731 76.1512 26.6429C76.1214 26.6728 77.9138 28.4127 77.9138 28.4127C78.9893 26.8829 80.2142 26.3131 82.5741 26.3131C85.9496 26.3131 87.294 27.663 87.294 30.3624V32.1323H81.7377C77.6151 32.1323 75.3747 34.2319 75.3747 37.4713C75.3747 38.9413 75.8525 40.3207 76.7489 41.2208C77.9138 42.4208 79.4075 42.9005 81.9466 42.9005C84.4261 42.9005 85.7705 42.4208 87.2642 40.9209V42.6907H89.9526V30.1223C89.9824 26.1332 87.5629 23.9733 82.6039 23.9733ZM87.294 36.1517C87.294 37.6815 86.9954 38.761 86.3678 39.3612C85.203 40.501 83.8288 40.5907 82.2453 40.5907C79.3178 40.5907 78.0036 39.571 78.0036 37.4414C78.0036 35.3114 79.3475 34.1717 82.1257 34.1717H87.294V36.1517ZM100.557 26.3729C102.32 26.3729 103.395 26.9128 104.799 28.4426L106.592 26.6728C104.71 24.6334 103.097 23.9733 100.557 23.9733C95.8974 23.9733 92.4024 27.123 92.4024 33.4519C92.4024 39.7811 95.9272 42.9304 100.557 42.9304C103.097 42.9304 104.71 42.2405 106.622 40.1707L104.799 38.4013C103.425 39.9311 102.32 40.501 100.557 40.501C98.7653 40.501 97.2716 39.7811 96.2858 38.4013C95.4192 37.2013 95.0907 35.7617 95.0907 33.422C95.0907 31.0827 95.4192 29.6725 96.2858 28.4426C97.2716 27.0927 98.7653 26.3729 100.557 26.3729ZM123.649 24.1831H120.274L111.909 32.342V15.9344H109.221V42.7206H111.909V35.9714L115.195 32.6722L121.379 42.7206H124.725L117.077 30.7823L123.649 24.1831ZM136.345 23.2236C133.507 23.2236 131.595 24.3335 130.401 25.5933C128.668 27.393 128.22 29.5824 128.22 33.0618C128.22 36.5717 128.668 38.761 130.401 40.5608C131.565 41.8205 133.507 42.9308 136.345 42.9308C139.183 42.9308 141.125 41.8205 142.32 40.5608C144.052 38.761 144.501 36.5717 144.501 33.0618C144.501 29.5824 144.052 27.393 142.32 25.5933C141.125 24.3335 139.183 23.2236 136.345 23.2236ZM138.586 37.7413C138.018 38.3112 137.301 38.5812 136.345 38.5812C135.389 38.5812 134.673 38.2813 134.135 37.7413C133.149 36.7515 133.029 35.0414 133.029 33.0319C133.029 31.0224 133.149 29.3726 134.135 28.3828C134.702 27.8129 135.389 27.543 136.345 27.543C137.301 27.543 138.048 27.8428 138.586 28.3828C139.572 29.3722 139.691 31.0519 139.691 33.0319C139.691 35.0414 139.572 36.7515 138.586 37.7413ZM157.226 23.4334L153.343 35.3418L149.43 23.4334H144.411L151.491 42.7206H155.255L162.305 23.4334H157.226ZM170.43 23.2236C165.442 23.2236 162.066 26.7633 162.066 33.0618C162.066 40.8606 166.427 42.9304 170.938 42.9304C174.403 42.9304 176.285 41.8504 178.227 39.9007L175.329 37.0514C174.105 38.2813 173.089 38.8511 170.968 38.8511C168.279 38.8511 166.756 37.0514 166.756 34.5617H178.765V32.4027C178.795 27.1235 175.777 23.2241 170.43 23.2241V23.2236ZM166.786 31.2621C166.816 30.4222 166.935 29.8822 167.234 29.1928C167.742 28.0526 168.817 27.1833 170.43 27.1833C172.043 27.1833 173.119 28.0231 173.627 29.1928C173.925 29.8827 174.045 30.4222 174.075 31.2621H166.786ZM185.875 25.2929V23.4334H181.184V42.7206H185.964V31.1121C185.964 28.6827 187.577 27.5724 189.071 27.5724C190.236 27.5724 190.863 27.9629 191.61 28.7126L195.225 25.0533C193.91 23.7333 192.566 23.2535 190.684 23.2535C188.653 23.2236 186.801 24.1826 185.875 25.2929ZM196.718 21.4234V42.6907H201.498V27.4823H205.053V23.8238H201.528V21.7242C201.528 20.6143 202.095 19.9842 203.231 19.9842H205.083V15.9045H202.364C198.421 15.9045 196.718 18.6937 196.718 21.4234ZM224.769 23.2236C221.931 23.2236 220.02 24.3335 218.824 25.5933C217.092 27.393 216.644 29.5824 216.644 33.0618C216.644 36.5717 217.092 38.761 218.824 40.5608C219.989 41.8205 221.931 42.9308 224.769 42.9308C227.607 42.9308 229.549 41.8205 230.744 40.5608C232.477 38.761 232.925 36.5717 232.925 33.0618C232.925 29.5824 232.477 27.393 230.744 25.5933C229.579 24.3335 227.607 23.2236 224.769 23.2236ZM227.039 37.7413C226.472 38.3112 225.755 38.5812 224.799 38.5812C223.843 38.5812 223.126 38.2813 222.588 37.7413C221.603 36.7515 221.483 35.0414 221.483 33.0319C221.483 31.0224 221.603 29.3726 222.588 28.3828C223.156 27.8129 223.843 27.543 224.799 27.543C225.755 27.543 226.502 27.8428 227.039 28.3828C228.025 29.3722 228.145 31.0519 228.145 33.0319C228.145 35.0414 228.025 36.7515 227.039 37.7413ZM255.568 23.4334L252.461 35.3418L248.518 23.4334H245.023L241.11 35.3418L238.003 23.4334H232.925L238.809 42.7206H242.753L246.756 30.6324L250.758 42.7202H254.702L260.617 23.4334H255.568ZM212.133 36.9014V15.9045H207.353V37.2013C207.353 39.9311 209.026 42.7206 212.969 42.7206H215.688V38.641H213.836C212.611 38.641 212.133 38.0412 212.133 36.9014ZM72.4472 27.123L74.9263 24.6334H69.8184V18.5143H67.1296V37.7409C67.1296 40.5005 68.7131 42.7202 71.8495 42.7202H73.7614V40.3805H72.3277C70.5948 40.3805 69.8184 39.3603 69.8184 37.6806V27.1235L72.4472 27.123Z" fill="#222426"/>
</g>
<defs>
<clipPath id="clip0_0_64">
<rect width="261" height="62" fill="white"/>
</clipPath>
</defs>
</svg>
